<?xml version="1.0" standalone="no"?>
<!DOCTYPE svg PUBLIC "-//W3C//DTD SVG 1.1//EN" "http://www.w3.org/Graphics/SVG/1.1/DTD/svg11.dtd" >
<svg>
<metadata>
Created by FontForge 20110222 at Tue May 15 04:24:10 2012
 By Stefan Warting
_null_name_substitute_
</metadata>
<defs>
<font id="IcoMoon-Regular" horiz-adv-x="512" >
  <font-face 
    font-family="IcoMoon"
    font-weight="400"
    font-stretch="normal"
    units-per-em="512"
    panose-1="0 0 5 0 0 0 0 0 0 0"
    ascent="480"
    descent="-32"
    cap-height="349"
    bbox="0 -32.6382 822 480.378"
    underline-thickness="50"
    underline-position="-50"
    unicode-range="U+000D-0059"
  />
<missing-glyph 
 />
    <glyph glyph-name=".notdef" 
 />
    <glyph glyph-name="uni0000" horiz-adv-x="0" 
 />
    <glyph glyph-name="uni0000" horiz-adv-x="0" 
 />
    <glyph glyph-name="uni000D" unicode="&#xd;" horiz-adv-x="170" 
 />
    <glyph glyph-name="exclam" unicode="!" 
d="M371 352l17 58c1 2 2 3 3 4c15 4 33 3 56 -4c17 -5 29 -12 37 -23s10 -22 7 -32l-11 -39l-75 -263c-1 -5 -2 -8 -3 -10c-1 -3 -4 -6 -7 -10c-3 -5 -7 -8 -11 -9c-5 -2 -11 -3 -19 -3s-17 1 -28 4l-127 37l-151 8h-1c-2 1 -3 2 -3 5l2 31l-32 9c-3 1 -4 3 -3 6l45 154
l6 114c0 2 1 3 3 4s4 0 5 -1l15 -15l13 46c1 3 3 4 6 3zM402 78l80 280c2 7 0 15 -6 24c-7 8 -17 14 -31 19c-19 5 -35 6 -49 4l-83 -292c14 1 30 0 48 -5c20 -6 34 -16 41 -30zM124 402l-9 -32c-1 -3 0 -5 3 -6h1l26 -8l-6 -22c-1 -3 0 -4 3 -5s5 0 6 3l6 22l22 -7l-12 -40
c-1 -3 1 -5 4 -6s5 0 6 3l2 9l22 -6l-8 -28c-1 -3 1 -5 4 -6l26 -7l-4 -13c-1 -3 1 -5 4 -6s4 0 5 3l4 13l22 -6l-8 -27c-1 -3 1 -5 4 -6l26 -8l-5 -19c-1 -3 0 -4 3 -5s5 0 6 3l5 19l22 -7l-10 -37c-1 -3 0 -5 3 -6s5 0 6 3l48 170c1 3 0 5 -3 6l-218 62c-3 1 -5 0 -6 -3z
M132 394l-6 -22l22 -6l6 22zM163 386l-6 -23l22 -6l6 22zM65 80l307 -18l-38 41c-11 1 -20 1 -27 -1c-1 -1 -3 0 -4 1s-2 3 -2 5l7 24l-13 14l-11 -10c-1 -1 -3 -2 -5 -1c-1 0 -1 0 -2 1c-2 3 -2 5 0 7l11 10l-12 13l-11 -10c-1 -1 -3 -2 -5 -1c-1 0 -1 1 -2 2
c-2 2 -2 4 0 6l12 10l-13 14l-11 -10c-1 -1 -3 -2 -5 -1c-1 0 -1 0 -2 1c-2 3 -2 5 0 7l12 10l-13 13l-11 -10c-1 -1 -3 -2 -4 -1s-2 1 -3 2c-2 2 -2 4 1 6l11 10l-13 14l-11 -10c-1 -1 -3 -2 -4 -1c-1 0 -2 0 -3 1c-2 3 -2 5 1 7l11 10l-12 13l-12 -10c-1 -1 -3 -1 -4 -1
l-2 2c-3 2 -3 4 0 7l11 9l-12 14l-11 -10c-1 -1 -3 -2 -5 -1c-1 0 -1 0 -2 1c-2 3 -2 5 0 7l11 10l-12 13l-11 -10c-1 -1 -3 -1 -5 -1l-2 2c-2 2 -2 4 0 7l11 9l-12 14l-11 -10c-1 -1 -3 -2 -5 -1c-1 0 -1 0 -2 1c-2 3 -2 5 1 7l10 10l-12 13l-11 -9c-1 -1 -3 -2 -4 -1
c-1 0 -2 0 -3 1c-2 3 -2 5 1 7l11 9l-37 40zM216 370l-6 -22l-22 6l6 23zM247 361l-6 -22l-22 6l7 23zM257 359l-7 -23l22 -6l7 23zM310 344l-7 -23l-22 6l7 23zM185 345l-6 -23l22 -6l6 22zM341 335l-7 -23l-21 6l6 23zM238 330l-6 -23l-22 6l6 23zM248 327l-7 -23l22 -6
l6 23zM279 318l-7 -23l22 -6l7 23zM310 309l-7 -22l22 -7l7 23zM207 304l-6 -23l22 -6l6 23zM260 289l-6 -23l-22 6l6 23zM291 280l-6 -23l-22 7l7 22zM301 277l-7 -22l22 -7l7 23zM282 248l-6 -23l-22 7l6 22zM313 239l-6 -22l-22 6l7 22zM140 236l95 -104c1 -1 2 -3 1 -5
s-3 -3 -5 -3l-101 6h-1c-3 1 -4 2 -4 5l6 98c0 2 1 3 3 4s4 0 6 -1zM192 135l7 22c1 3 0 6 -3 7s-5 -1 -6 -4l-1 -3l-22 6l6 21c1 3 0 5 -3 6s-5 0 -6 -3l-6 -22l-16 5c-3 1 -5 0 -6 -3s0 -5 3 -6l16 -5l-3 -10c-1 -3 1 -4 4 -5s4 0 5 3l3 10l22 -7l-3 -9c-1 -3 1 -5 4 -6
s4 0 5 3zM57 131l5 18c1 3 0 6 -3 7s-5 -1 -6 -4l-6 -18c-1 -3 1 -5 4 -6s5 0 6 3z" />
    <glyph glyph-name="quotedbl" unicode="&#x22;" 
d="M448 352h64v-272c0 -13 -5 -25 -14 -34s-21 -14 -34 -14h-432c-9 0 -16 3 -22 10c-7 6 -10 13 -10 22v352h448v-64zM416 64v320h-384v-320h384zM64 320v-32h320v32h-320zM64 256v-160h160v160h-160zM256 256v-32h128v32h-128zM256 192v-32h128v32h-128zM256 128v-32h96
v32h-96z" />
    <glyph glyph-name="dollar" unicode="$" 
d="M145 36l130 39l45 85l192 192v-96l-192 -192l-320 -96l96 320l192 192h96l-192 -192l-85 -45l-39 -130c35 -17 60 -42 77 -77zM192 160l32 64l224 224l32 -32l-224 -224z" />
    <glyph glyph-name="percent" unicode="%" 
d="M256 480l19 -17c13 -11 29 -27 48 -48c18 -21 36 -44 55 -69s35 -54 48 -86c13 -33 21 -64 22 -94v-2v-1v-3v-4c-1 -52 -21 -96 -58 -133s-82 -55 -134 -55s-97 18 -134 55s-57 81 -58 133v4v3v1v2c1 30 9 61 23 94s29 61 46 85c17 23 36 47 58 71c21 23 36 39 45 47
c8 7 15 13 20 17zM384 157v1v2v2v1v1c-1 31 -12 65 -32 102c1 -9 2 -19 2 -29c0 -43 -10 -82 -31 -118s-50 -65 -85 -86c6 -1 12 -1 18 -1c35 0 65 12 90 37c25 24 37 53 38 88z" />
    <glyph glyph-name="ampersand" unicode="&#x26;" 
d="M368 352h112c9 0 16 -3 23 -9c6 -7 9 -14 9 -23v-256c0 -9 -3 -16 -9 -22c-7 -7 -14 -10 -23 -10h-448c-9 0 -16 3 -22 10c-7 6 -10 13 -10 22v256c0 9 3 16 10 23c6 6 13 9 22 9h112c3 14 6 25 9 32s7 15 14 22s15 10 25 10h128c10 0 18 -3 25 -10s11 -15 14 -22
s6 -18 9 -32zM358 106c28 28 42 62 42 102s-14 74 -42 102s-62 42 -102 42s-74 -14 -102 -42s-42 -62 -42 -102s14 -74 42 -102s62 -42 102 -42s74 14 102 42zM480 288v32h-64v-32h64zM184 136c20 -20 44 -30 72 -30s52 10 72 30s30 44 30 72s-10 52 -30 72s-44 30 -72 30
s-52 -10 -72 -30s-30 -44 -30 -72s10 -52 30 -72z" />
    <glyph glyph-name="quotesingle" unicode="'" 
d="M156 448l356 25s-1 -31 -4 -94s-5 -127 -8 -192s-5 -100 -5 -105c-1 -18 -9 -34 -24 -47c-15 -14 -34 -23 -56 -26c-25 -3 -48 1 -67 12s-30 27 -33 47c-3 19 4 37 19 53s36 26 61 30c24 3 45 0 64 -11l13 240l-278 -28c0 -1 -1 -23 -3 -68s-4 -93 -6 -143
c-3 -51 -4 -81 -4 -92c0 -1 0 -1 -1 -2c-1 -17 -9 -33 -24 -46s-34 -22 -56 -25c-25 -3 -47 1 -66 12s-30 27 -33 47c-3 19 3 37 19 53c15 16 35 26 60 30c23 3 44 0 63 -10z" />
    <glyph glyph-name="parenright" unicode=")" 
d="M34 480l28 -16c-20 -35 -30 -72 -30 -112s10 -77 30 -112l-28 -16c-23 39 -34 82 -34 128s11 89 34 128zM450 464l28 16c23 -39 34 -82 34 -128s-11 -89 -34 -128l-28 16c20 35 30 72 30 112s-10 77 -30 112zM145 288l-28 -16c-14 25 -21 51 -21 80s7 55 21 80l28 -16
c-11 -20 -17 -41 -17 -64s6 -44 17 -64zM367 416l28 16c14 -25 21 -51 21 -80s-7 -55 -21 -80l-28 16c11 20 17 41 17 64s-6 44 -17 64zM234 330c6 -7 13 -10 22 -10s16 3 23 10c6 6 9 13 9 22s-3 16 -9 23c-7 6 -14 9 -23 9s-16 -3 -22 -9c-7 -7 -10 -14 -10 -23
s3 -16 10 -22zM224 288h64l128 -320h-49l-111 97l-111 -97h-49zM256 108l52 45l-42 103h-20l-42 -103zM149 14l83 73l-40 35zM363 14l-43 108l-40 -35z" />
    <glyph glyph-name="asterisk" unicode="*" 
d="M320 400v-192c0 -22 -8 -41 -23 -56c-16 -16 -35 -24 -57 -24s-41 8 -56 24c-16 15 -24 34 -24 56v192c0 22 8 41 24 57c15 15 34 23 56 23s41 -8 57 -23c15 -16 23 -35 23 -57zM352 256h32v-48c0 -37 -12 -69 -37 -96s-55 -43 -91 -47v-65h64v-32h-160v32h64v65
c-36 4 -66 20 -91 47s-37 59 -37 96v48h32v-48c0 -31 11 -57 33 -79s48 -33 79 -33s57 11 79 33s33 48 33 79v48z" />
    <glyph glyph-name="plus" unicode="+" 
d="M0 81v286c37 33 79 49 128 49s91 -16 128 -49c37 33 79 49 128 49s91 -16 128 -49v-286l-1 -1c-8 -7 -17 -14 -26 -20c-10 8 -20 15 -31 20c-22 11 -45 16 -70 16s-48 -5 -70 -16c-11 -5 -21 -12 -31 -20c-1 -1 -3 -3 -5 -4c-8 -7 -15 -15 -22 -24c-7 9 -14 17 -22 24
c-2 1 -4 3 -5 4c-10 8 -20 15 -31 20c-22 11 -45 16 -70 16s-48 -5 -70 -16c-11 -5 -21 -12 -31 -20c-9 6 -18 13 -26 20v1h-1zM32 352v-250c29 17 61 26 96 26s67 -9 96 -26v250c-29 21 -61 32 -96 32s-67 -11 -96 -32zM288 352v-250c29 17 61 26 96 26s67 -9 96 -26v250
c-29 21 -61 32 -96 32s-67 -11 -96 -32z" />
    <glyph glyph-name="comma" unicode="," 
d="M480 224l-416 -64c0 -9 3 -16 10 -22c6 -7 13 -10 22 -10h384v-32h-384c-18 0 -33 6 -45 19c-13 12 -19 27 -19 45c0 21 8 37 24 50l-24 206c0 9 -3 16 -9 23c-7 6 -14 9 -23 9v32c18 0 33 -6 46 -18c12 -13 18 -28 18 -46h416v-192zM78 -18c9 -9 21 -14 34 -14
s25 5 34 14s14 21 14 34s-5 25 -14 34s-21 14 -34 14s-25 -5 -34 -14s-14 -21 -14 -34s5 -25 14 -34zM398 -18c9 -9 21 -14 34 -14s25 5 34 14s14 21 14 34s-5 25 -14 34s-21 14 -34 14s-25 -5 -34 -14s-14 -21 -14 -34s5 -25 14 -34z" />
    <glyph glyph-name="hyphen" unicode="-" 
d="M437 405c50 -50 75 -110 75 -181s-25 -131 -75 -181s-110 -75 -181 -75s-131 25 -181 75s-75 110 -75 181s25 131 75 181s110 75 181 75s131 -25 181 -75zM305 342l37 89c-27 11 -56 17 -86 17s-59 -6 -86 -17l20 -47l17 -42c15 7 32 10 49 10s34 -3 49 -10zM188 156
c19 -19 41 -28 68 -28s49 9 68 28s28 41 28 68s-9 49 -28 68s-41 28 -68 28s-49 -9 -68 -28s-28 -41 -28 -68s9 -49 28 -68zM96 290l-47 20c-11 -27 -17 -56 -17 -86s6 -59 17 -86l89 37c-7 15 -10 32 -10 49s3 34 10 49zM374 175l89 -37c11 27 17 56 17 86s-6 59 -17 86
l-28 -12l-61 -25c7 -15 10 -32 10 -49s-3 -34 -10 -49zM182 45l-12 -28c27 -11 56 -17 86 -17s59 6 86 17l-37 89c-15 -7 -32 -10 -49 -10s-34 3 -49 10z" />
    <glyph glyph-name="period" unicode="." 
d="M437 405c50 -50 75 -110 75 -181s-25 -131 -75 -181s-110 -75 -181 -75s-131 25 -181 75s-75 110 -75 181s25 131 75 181s110 75 181 75s131 -25 181 -75zM415 66c43 43 65 96 65 158s-22 115 -65 159c-44 43 -97 65 -159 65s-115 -22 -158 -65c-44 -44 -66 -97 -66 -159
s22 -115 66 -158c43 -44 96 -66 158 -66s115 22 159 66zM128 96l83 173l173 83l-87 -177zM234 247c-7 -7 -10 -14 -10 -23s3 -16 10 -22c6 -7 13 -10 22 -10s16 3 23 10c6 6 9 13 9 22s-3 16 -9 23c-7 6 -14 9 -23 9s-16 -3 -22 -9z" />
    <glyph glyph-name="slash" unicode="/" 
d="M206 351l-26 -20l-88 130l28 18c9 3 16 1 21 -5l67 -102c5 -9 5 -16 -2 -21zM151 267l1 -3c17 -28 36 -54 56 -79c26 -26 53 -50 81 -72c14 -7 25 -9 33 -4c7 4 15 9 22 16l120 -101c-11 -12 -27 -24 -48 -36c-23 -12 -41 -19 -56 -20c-99 39 -174 90 -225 153v1
c-54 57 -94 134 -121 231c3 14 11 32 26 53c14 20 28 35 41 44l87 -130c-7 -6 -13 -13 -18 -20s-5 -18 1 -33zM398 159l95 -77c6 -6 7 -13 3 -22l-21 -25l-120 101l23 23c6 6 13 6 20 0z" />
    <glyph glyph-name="zero" unicode="0" 
d="M320 320h160v-128h-32v-224h-384v224h-32v128h176l-80 64l96 64l36 -108l60 140l96 -96zM328 438l-50 -117l100 67zM211 411l-42 -29l71 -56zM224 224v64h-160v-64h160zM448 224v64h-160v-64h160zM224 0v208h-128v-208h128zM416 0v208h-128v-208h128z" />
    <glyph glyph-name="two" unicode="2" 
d="M352 448l160 32l-32 -160l-160 -160v-96l-128 -96c2 2 5 11 11 28c7 18 12 39 16 64c4 24 1 48 -8 72l-211 -164l161 207c-9 3 -22 5 -39 4s-32 -2 -43 -3c-12 -1 -25 -3 -39 -6c-15 -3 -24 -6 -29 -7s-8 -2 -11 -3l96 128h96z" />
    <glyph glyph-name="three" unicode="3" 
d="M320 341l158 -263c18 -31 21 -57 9 -78s-36 -32 -71 -32h-320c-35 0 -59 11 -71 32s-9 47 9 78l158 263v107h-16c-5 0 -8 2 -11 5s-5 6 -5 11s2 9 5 12s6 4 11 4h160c5 0 9 -1 12 -4s4 -7 4 -12s-1 -8 -4 -11s-7 -5 -12 -5h-16v-107zM121 160h270l-103 172v116h-64v-116z
" />
    <glyph glyph-name="four" unicode="4" 
d="M158 398c9 -9 21 -14 34 -14s25 5 34 14s14 21 14 34s-5 25 -14 34s-21 14 -34 14s-25 -5 -34 -14s-14 -21 -14 -34s5 -25 14 -34zM480 128l32 -32l-64 -64l-128 128h-160v192h64v-64h128v-32h-128v-51h115l109 -109zM88 271l22 -43c-19 -9 -34 -23 -45 -41
s-17 -38 -17 -59c0 -31 11 -57 33 -79s48 -33 79 -33s57 11 79 33s33 48 33 79h48c0 -44 -16 -82 -47 -113s-69 -47 -113 -47s-82 16 -113 47s-47 69 -47 113c0 31 8 59 24 85c16 25 37 45 64 58z" />
    <glyph glyph-name="five" unicode="5" horiz-adv-x="511" 
d="M310 150l98 -69c12 10 25 15 40 15c17 0 32 -6 45 -19s19 -28 19 -45s-6 -32 -19 -45s-28 -19 -45 -19c-18 0 -33 6 -45 19c-13 13 -19 28 -19 45c0 7 2 15 5 23l-97 69c-19 -19 -41 -28 -68 -28s-49 9 -68 28s-28 41 -28 68c0 3 1 8 2 15l-77 25c-6 -5 -13 -8 -21 -8
c-9 0 -16 3 -22 10c-7 6 -10 13 -10 22s3 16 10 23c6 6 13 9 22 9c7 0 14 -2 20 -7c5 -5 9 -11 11 -18l77 -26c8 15 20 28 35 37s31 14 49 14c20 0 39 -6 56 -18l114 114c-7 11 -10 22 -10 32c0 18 6 33 19 46c12 12 27 18 45 18c17 0 32 -6 45 -18c13 -13 19 -28 19 -46
s-6 -33 -19 -45c-13 -13 -28 -19 -45 -19c-10 0 -21 3 -32 10l-114 -115c12 -17 18 -35 18 -55c0 -14 -3 -28 -10 -42z" />
    <glyph glyph-name="six" unicode="6" 
d="M384 352h64l64 64v-448h-512v512h64l64 -64l-64 -64h64l65 64l-64 64h91l64 -64l-65 -64h76l65 64l-64 64h89l63 -64zM449 480h63v-64zM448 160v64h-384v-64h384zM448 32v64h-384v-64h384z" />
    <glyph glyph-name="X" unicode="X" 
d="M325 462l18 -7c5 -2 8 -3 11 -2l22 3c7 1 10 -4 5 -11l-29 -30c-1 -3 -5 -4 -9 -5l-33 -5c-6 -2 -9 1 -11 5l-10 22c-2 5 -2 9 3 12l21 15c4 4 8 3 12 3zM42 323l228 112c5 2 10 1 12 -5l12 -26c2 -4 -1 -8 -5 -10l-236 -95c-6 -2 -9 0 -11 5l-4 9c-2 5 -1 8 4 10z
M449 307c14 -9 25 -19 34 -30s15 -21 17 -30c3 -10 5 -20 5 -28s-2 -15 -5 -21s-7 -9 -11 -9c-4 -1 -11 -1 -18 1c-8 3 -16 5 -23 7c-8 2 -17 1 -27 -1c-9 -3 -19 -9 -29 -19c-8 -8 -11 -16 -10 -25c1 -10 2 -18 7 -24c4 -6 9 -13 13 -20c4 -8 7 -13 7 -17
c-1 -5 -4 -11 -11 -19c-6 -8 -15 -17 -28 -26s-30 -16 -53 -23c-24 -6 -50 -9 -79 -9c-56 0 -100 15 -131 45c-32 29 -46 66 -42 109c2 36 17 72 46 107s62 58 98 67c87 26 167 14 240 -35zM331 108c6 6 9 14 9 23s-3 17 -9 24c-7 6 -15 10 -25 10c-9 0 -17 -4 -24 -10
c-6 -7 -9 -15 -9 -24s3 -17 9 -23c7 -7 15 -11 24 -11c10 0 18 4 25 11z" />
    <glyph glyph-name="parenleft" unicode="(" 
d="M64 352h224c9 0 16 -3 23 -9c6 -7 9 -14 9 -23v-192c0 -9 -3 -16 -9 -22c-7 -7 -14 -10 -23 -10h-224c-9 0 -16 3 -22 10c-7 6 -10 13 -10 22v192c0 9 3 16 10 23c6 6 13 9 22 9zM352 242l128 110v-256l-128 110v36z" />
    <glyph glyph-name="seven" unicode="7" 
d="M96 480h320c9 0 16 -3 23 -9c6 -7 9 -14 9 -23v-448c0 -9 -3 -16 -9 -22c-7 -7 -14 -10 -23 -10h-320c-9 0 -16 3 -22 10c-7 6 -10 13 -10 22v448c0 9 3 16 10 23c6 6 13 9 22 9zM384 32v384h-256v-384h256zM268 -11c3 3 4 6 4 11s-1 9 -4 12s-7 4 -12 4s-8 -1 -11 -4
s-5 -7 -5 -12s2 -8 5 -11s6 -5 11 -5s9 2 12 5z" />
    <glyph glyph-name="eight" unicode="8" 
d="M436 320h76v-224h-64v-80c0 -5 -1 -8 -4 -11s-7 -5 -12 -5h-64c-5 0 -8 2 -11 5s-5 6 -5 11v80h-192v-80c0 -5 -1 -8 -4 -11s-7 -5 -12 -5h-64c-5 0 -8 2 -11 5s-5 6 -5 11v80h-64v224h76l84 128h192zM177 416l-63 -96h284l-63 96h-158zM160 160c9 9 13 19 13 32
s-4 23 -13 32s-19 13 -32 13s-23 -4 -32 -13s-13 -19 -13 -32s4 -23 13 -32s19 -13 32 -13s23 4 32 13zM416 160c9 9 13 19 13 32s-4 23 -13 32s-19 13 -32 13s-23 -4 -32 -13s-13 -19 -13 -32s4 -23 13 -32s19 -13 32 -13s23 4 32 13z" />
    <glyph glyph-name="nine" unicode="9" 
d="M480 224v-192h-64v-32c0 -9 -3 -16 -9 -22c-7 -7 -14 -10 -23 -10s-16 3 -22 10c-7 6 -10 13 -10 22v32h-192v-32c0 -9 -3 -16 -9 -22c-7 -7 -14 -10 -23 -10s-16 3 -22 10c-7 6 -10 13 -10 22v32h-64v192l4 49c3 33 8 68 13 105s10 61 15 70c11 21 75 32 192 32
s181 -11 192 -32s21 -96 32 -224zM160 448v-32h192v32h-192zM102 256h308c-1 8 -2 16 -3 23c-5 43 -9 76 -14 97c-11 3 -27 5 -47 6s-50 2 -90 2s-70 -1 -90 -2s-36 -3 -47 -6c-5 -21 -9 -54 -14 -97c-1 -7 -2 -15 -3 -23zM161 128c9 9 13 19 13 32s-4 24 -13 33
s-20 13 -33 13s-23 -4 -32 -13s-14 -20 -14 -33s5 -23 14 -32s19 -14 32 -14s24 5 33 14zM417 128c9 9 13 19 13 32s-4 24 -13 33s-20 13 -33 13s-23 -4 -32 -13s-14 -20 -14 -33s5 -23 14 -32s19 -14 32 -14s24 5 33 14z" />
    <glyph glyph-name="Y" unicode="Y" 
d="M137 -17l64 205h-92l-58 -51h-51l41 87l-41 87h51l58 -51h92l-64 205h51l115 -206h152c13 -1 25 -4 38 -10s19 -14 19 -25c0 -7 -3 -12 -8 -17s-11 -9 -18 -11c-7 -3 -15 -4 -24 -5s-15 -2 -18 -2c-3 -1 -6 -1 -9 -1h-132l-115 -205h-51z" />
    <glyph glyph-name="one" unicode="1" 
d="M296 214l-27 -17c-24 -15 -52 -16 -84 -2c-33 14 -60 39 -83 74c-19 30 -29 60 -32 91s3 55 18 74c7 9 18 19 32 28c13 9 26 14 37 16c23 5 48 1 75 -14s50 -38 69 -68c23 -36 34 -71 33 -106s-14 -61 -38 -76zM302 297c-1 27 -11 55 -28 82s-38 46 -62 59
c-25 12 -45 13 -60 3c-16 -10 -23 -28 -22 -55s10 -55 27 -82s38 -47 62 -59c24 -13 44 -14 60 -4s24 29 23 56zM313 195l128 -187c4 -6 3 -11 -3 -14l-41 -25c-6 -3 -11 -2 -14 4l-105 201c-3 6 -2 11 4 15l16 9c6 4 11 3 15 -3z" />
    <glyph glyph-name="semicolon" unicode=";" 
d="M77 383l37 -51c-11 -9 -21 -19 -30 -30l-42 57c-3 5 -4 10 -3 16s3 11 8 14s10 5 16 4s11 -5 14 -10zM433 223l34 19c7 3 12 2 15 -4c3 -7 2 -12 -4 -15l-22 -12l16 -5c7 -2 10 -6 8 -13s-7 -10 -14 -8l-32 10c-1 -41 -19 -74 -54 -99s-78 -38 -131 -40h-2l-1 -1v1
c-54 2 -98 16 -133 41s-52 59 -52 102c0 44 18 82 54 114c35 32 79 49 131 51h1h2c47 -2 87 -16 122 -43c34 -27 54 -60 61 -99zM246 150h3c7 -1 15 -7 24 -18s17 -19 25 -24c13 -5 26 -6 39 -5s24 6 34 17c9 11 13 24 12 41c-1 22 -15 42 -41 59s-58 26 -95 27
c-37 -1 -69 -10 -95 -27s-40 -37 -41 -59c-1 -17 4 -30 14 -41c9 -11 21 -16 34 -17s25 0 37 5c9 5 17 13 26 24s17 17 24 18zM166 183c4 0 8 -1 11 -4s5 -7 5 -11c0 -5 -2 -9 -5 -12s-7 -5 -11 -5c-5 0 -8 2 -11 5s-5 7 -5 12c0 4 2 8 5 11s6 4 11 4zM329 183
c5 0 9 -1 12 -4s4 -7 4 -11c0 -5 -1 -9 -4 -12s-7 -5 -12 -5s-8 2 -11 5s-5 7 -5 12c0 4 2 8 5 11s6 4 11 4z" />
    <glyph glyph-name="equal" unicode="=" 
d="M437 405c50 -50 75 -110 75 -181s-25 -131 -75 -181s-110 -75 -181 -75s-131 25 -181 75s-75 110 -75 181s25 131 75 181s110 75 181 75s131 -25 181 -75zM385 230c7 0 14 -1 20 -4c1 3 3 8 5 15c2 6 5 18 8 35s5 33 6 48s-1 32 -4 50s-9 33 -18 45
c-43 32 -92 48 -146 48c-55 0 -105 -17 -148 -50c23 -7 47 -19 74 -36c27 -18 52 -38 76 -61l57 -57s28 -30 40 -44c9 7 19 11 30 11zM418 132c3 -12 7 -22 14 -31s16 -13 27 -10c27 39 40 83 40 131c-27 -15 -48 -25 -63 -31c1 -5 2 -11 2 -16c0 -18 -7 -32 -20 -43z
M170 -3c13 -3 25 -4 38 -5c12 -1 27 1 44 5c17 3 32 9 46 18c13 9 27 22 40 41c13 18 24 40 32 66c-18 6 -30 18 -35 37c-49 -10 -93 -16 -133 -18c-41 -3 -73 -2 -98 3s-43 9 -55 14c-13 4 -23 8 -30 13c9 -40 27 -75 54 -106s59 -54 97 -68z" />
    <glyph glyph-name="greater" unicode="&#x3e;" 
d="M501 198h-21c-3 0 -5 1 -7 3s-3 5 -3 8v25h-20c-3 -13 -5 -29 -5 -48c0 -38 4 -71 13 -100h45c5 0 8 -3 8 -9v-90c0 -6 -3 -9 -8 -9h-490c-6 0 -9 3 -9 9v90c0 6 3 9 9 9h292c12 27 18 61 18 100c0 11 -2 20 -5 28c-4 8 -10 14 -17 19c-8 5 -15 9 -22 12s-17 5 -30 6
s-23 1 -30 2h-34c-19 0 -35 -3 -48 -9c-14 -6 -24 -13 -31 -22s-12 -16 -15 -23s-5 -14 -5 -19v-23c0 -7 -3 -10 -10 -10h-17l-2 -54c0 -1 -1 -2 -2 -2s-2 1 -2 2l-2 54h-16c-7 0 -10 3 -10 10v236c0 7 3 10 10 10h41c7 0 10 -3 10 -10v-6c1 -14 9 -27 22 -38
c13 -12 29 -18 48 -18c21 0 53 2 98 5s78 5 99 6c0 3 1 5 4 5h7v77h-7c-3 0 -4 2 -4 5s1 5 4 5h54c3 0 4 -2 4 -5s-1 -5 -4 -5h-7v-77h7c3 0 4 -2 4 -5h4c15 0 27 -5 35 -16h16v26c0 3 1 5 3 7s4 3 7 3h21c3 0 5 -1 7 -3s3 -4 3 -7v-143c0 -3 -1 -6 -3 -8s-4 -3 -7 -3z" />
    <glyph glyph-name="question" unicode="?" 
d="M377 255l73 12c3 1 5 0 8 -2c2 -2 3 -5 3 -8v-217c0 -7 -3 -10 -10 -10h-394c-7 0 -10 3 -10 10v152c0 5 3 9 8 10l91 15v197h48v-189l44 7v182h48v-174l43 7v167h48v-159zM441 50v196l-375 -62v-134h375zM279 185v-38h33v38h-33zM334 185v-38h32v38h-32zM388 185v-38h33
v38h-33zM334 126v-38h32v38h-32zM388 126v-38h33v38h-33z" />
    <glyph glyph-name="at" unicode="@" 
d="M443 153v-3c35 -12 56 -29 62 -51s-7 -38 -38 -49c-52 -15 -105 -21 -158 -18c-54 3 -103 11 -147 25c-45 13 -81 29 -109 47c-29 17 -43 33 -44 46c0 6 1 12 4 17s6 9 11 12l15 9c5 2 10 4 16 6c5 1 10 3 15 4c4 1 8 1 12 2h6l6 19l25 71l3 7c2 5 7 10 14 15s15 8 25 9
c27 3 70 -6 129 -27c56 -19 87 -29 93 -29c13 -1 12 8 -1 25c2 -4 3 -7 2 -9c0 -7 -15 -4 -45 8c-65 25 -113 37 -144 36c17 6 35 11 54 14c18 3 40 2 67 -3c26 -5 49 -15 68 -31c12 -10 23 -29 33 -56c10 -28 17 -49 20 -62c3 -14 5 -25 6 -34zM444 108l-4 44
c-16 -7 -39 -12 -68 -13s-60 0 -93 5s-66 13 -100 25c-34 11 -62 25 -85 42c-4 -6 -9 -25 -14 -57c15 -15 39 -28 74 -40s71 -21 109 -26c37 -5 73 -6 108 -3s59 10 73 23z" />
    <glyph glyph-name="A" unicode="A" 
d="M346 124c-1 6 0 11 1 16s4 9 9 12s9 5 12 6s8 3 15 5c27 9 36 19 25 30c-3 3 -8 5 -15 8c-8 3 -14 5 -17 8c-5 5 -9 11 -10 20c-1 8 -1 15 2 21c7 15 24 25 50 29c2 0 6 0 13 1c7 0 12 1 16 2s8 3 11 6c9 7 9 14 2 20c-6 4 -17 2 -32 -6c-2 -1 -5 -2 -10 -5s-9 -6 -12 -7
s-7 -2 -11 -3c-5 -1 -8 -1 -11 1c-3 1 -6 4 -9 9c-1 3 -2 9 -2 18c-1 8 -2 15 -4 20c-3 5 -7 7 -14 6c-3 -1 -9 -3 -17 -6c-9 -3 -15 -5 -20 -5c-6 1 -11 3 -14 8c-4 4 -5 9 -2 14c1 3 5 7 12 12s10 10 11 14c1 5 -1 10 -4 14c-3 3 -7 4 -12 3c-7 -1 -14 -6 -23 -16
c-5 -5 -9 -10 -12 -14c-4 -4 -9 -8 -14 -13s-10 -8 -14 -10s-8 -3 -12 -4c-5 -1 -8 1 -11 4s-6 8 -8 15c-1 3 -2 12 -3 26c-1 13 -3 24 -7 32c-4 7 -11 12 -21 14c-8 1 -14 -1 -17 -6s-4 -12 -2 -19s7 -15 15 -25c8 -11 12 -16 12 -16c13 -19 15 -40 6 -61
c-5 -11 -10 -16 -17 -16c-3 0 -10 1 -19 3c-9 1 -16 2 -21 1c-13 -1 -12 -6 2 -14c2 -2 6 -4 11 -5s8 -2 10 -3c1 -1 3 -4 4 -7c1 -4 0 -9 -4 -14c-14 -25 -54 -31 -119 -18c-9 1 -17 0 -23 -4c-5 -3 -7 -8 -6 -14c1 -7 4 -10 11 -11c3 0 9 1 16 3c7 1 11 2 12 2
c13 2 25 2 36 0c8 -1 13 -3 14 -5c1 -1 2 -4 1 -7s-2 -6 -1 -7c1 -3 4 -4 9 -4c3 0 8 1 14 2c5 1 9 1 12 1c17 1 26 0 28 -5c2 -6 1 -14 -3 -23c-4 -10 -10 -20 -17 -31s-12 -19 -13 -24c-3 -9 -6 -16 -7 -22c-4 -18 2 -21 18 -10c1 1 5 4 11 9c5 5 11 10 17 15
c5 5 11 9 18 13c6 4 11 5 16 4s8 -6 10 -13c1 -5 0 -14 -3 -27c-3 -14 -3 -23 0 -26c3 -5 8 -8 13 -7s10 3 13 7c5 6 10 16 13 31c3 14 6 23 8 27c9 17 26 20 51 9c9 -5 17 -12 22 -21c3 -5 7 -15 12 -28c4 -14 8 -24 13 -31c3 -4 6 -7 11 -10c4 -3 8 -4 13 -3c4 1 7 4 8 10
c1 5 1 10 -1 16c-2 5 -4 10 -6 14c-3 3 -7 8 -12 15c-5 6 -8 10 -9 11c-10 14 -16 27 -18 39zM371 346c-1 1 1 5 5 11c4 5 7 9 9 11c14 13 23 20 27 21s7 0 8 -2s0 -4 -2 -7c-3 -3 -9 -9 -19 -18c-11 -9 -18 -14 -21 -15c-4 -3 -6 -3 -7 -1zM119 291c0 -4 -8 -3 -25 2
s-28 9 -31 12c-8 6 -10 11 -7 14c1 3 3 4 8 3c4 -1 7 -2 9 -3s5 -3 10 -6c4 -3 6 -4 7 -4c2 -1 5 -3 10 -6s9 -5 13 -7c4 -3 6 -4 6 -5zM424 181c2 3 14 2 35 -4s33 -12 36 -19c3 -8 2 -13 -4 -14c-7 -2 -13 -1 -19 3c-1 1 -6 3 -15 8c-10 5 -18 9 -25 14c-7 4 -10 8 -9 11
c0 1 0 1 1 1z" />
    <glyph glyph-name="B" unicode="B" 
d="M381 300c6 -1 14 -3 25 -5s19 -3 25 -4c-4 -2 -10 -4 -17 -7s-12 -5 -15 -6c-1 -1 -4 -2 -8 -4c-5 -2 -8 -3 -9 -4c-2 -1 -5 -2 -10 -3c-5 -2 -8 -3 -10 -3c-2 -1 -5 -1 -10 -2s-9 -2 -11 -1c-3 1 -7 1 -13 1c-21 3 -41 3 -62 1c-53 -4 -97 -11 -133 -22
c-7 7 -23 17 -47 32c-4 3 -10 7 -18 12s-14 9 -19 12c-7 4 -11 6 -13 7c-1 1 -3 1 -6 2s-5 1 -6 2c-7 3 -11 4 -12 4c-1 -1 -2 -1 -3 -2s-2 -3 -2 -4c-1 -1 -1 -2 -1 -3c-1 -1 -1 -3 -1 -5c-1 -2 -1 -3 -1 -4c0 -2 0 -4 -1 -6c-1 -3 -1 -4 -1 -5s1 -5 2 -11s3 -9 5 -9
c3 0 4 2 4 5v4c-1 2 -1 3 -1 4v9s0 7 1 8c1 0 3 -2 6 -5c2 -3 3 -6 4 -7s2 -3 4 -7c2 -5 4 -8 5 -9s4 -4 11 -8c20 -13 42 -27 67 -44c5 -3 9 -6 12 -7c1 -3 4 -6 9 -9s7 -5 7 -6c3 -2 5 -8 8 -18s6 -17 7 -20c7 -18 13 -29 20 -32c13 -7 34 -8 63 -1c18 4 36 10 55 18
c9 4 17 9 22 14c8 8 17 23 28 45c3 7 5 11 6 12s1 2 2 4s1 3 2 4c0 0 1 1 2 3c1 1 1 2 2 3l2 2s3 1 4 2s2 1 3 2h5c1 -13 4 -24 8 -35c5 -13 12 -21 20 -23c6 -1 14 -1 24 1c6 1 13 4 20 8c14 7 24 14 31 23s13 21 18 36c1 1 2 5 5 13c2 7 4 13 6 16c0 1 1 2 2 4s2 4 3 5
c0 1 0 3 1 6c0 3 0 5 1 6c1 7 2 10 2 11c-1 1 -6 3 -16 6c-17 5 -54 14 -111 25c-5 1 -12 1 -20 2c-9 1 -20 1 -32 0c-9 -1 -17 -3 -23 -8c-9 -7 -19 -13 -29 -18c-5 -3 -8 -6 -9 -7c-1 -3 0 -5 2 -8s4 -5 6 -5c3 -1 6 2 9 7c0 1 0 2 1 3v2c1 1 3 4 8 7c1 1 4 2 8 5
c4 2 7 4 9 6c5 3 8 5 9 5c3 1 7 0 13 -3c7 -3 14 -7 20 -11c4 -3 7 -5 10 -6c2 0 5 0 10 -1c4 -1 6 -1 6 -1zM481 277c-5 -25 -12 -45 -21 -61c-6 -10 -12 -17 -19 -22c-15 -12 -30 -15 -45 -9c-1 3 -3 7 -5 14c-5 23 -4 41 3 52c1 3 5 6 11 11c9 6 19 11 30 15c2 1 5 2 9 3
s7 1 8 2h1c17 -3 26 -5 28 -5zM332 244c2 -4 2 -8 1 -11c0 0 -2 -2 -7 -6c-11 -11 -19 -28 -22 -49v-4c0 -3 0 -5 -1 -6c-1 -6 -10 -13 -27 -21c-9 -4 -19 -8 -30 -11c-35 -11 -59 -10 -72 2c-5 10 -9 21 -10 34c-2 16 -1 29 3 40c3 6 7 11 14 16c7 4 13 7 19 8
c5 1 13 3 23 6c47 9 84 10 109 2z" />
    <glyph glyph-name="C" unicode="C" 
d="M376 170l21 5h7s8 -1 15 -2s13 -3 18 -5s10 -5 15 -10c4 -5 6 -12 6 -19c-1 -1 -1 -2 -2 -3c-1 -2 -3 -5 -6 -9c-3 -5 -8 -8 -15 -10s-17 -4 -30 -6s-29 -1 -48 2c-25 9 -54 7 -88 -6l-20 -7c5 1 7 2 7 2c-58 -25 -110 -32 -155 -22c-34 8 -49 23 -45 45c0 2 0 4 1 5v4
c0 1 1 4 4 8c2 4 5 8 9 13c4 4 11 9 20 14s20 10 33 14l-10 -49s0 -2 1 -7c1 -1 3 1 5 6c0 1 0 2 1 3l8 47c4 17 5 47 2 91s-6 70 -8 78v7c11 1 26 3 45 4s53 2 102 2c49 -1 92 -4 131 -11l1 -6s-4 -37 -12 -112c-2 -33 -1 -50 4 -53c-28 -4 -65 -17 -111 -38
c-47 -23 -73 -40 -80 -49l-4 -4c0 -1 2 0 6 3c35 21 69 38 102 51c32 13 55 21 70 24z" />
    <glyph glyph-name="D" unicode="D" 
d="M297 266l146 -85c6 -3 9 -7 9 -12v-45v-43c0 -5 -3 -9 -9 -12l-166 -96c-9 -5 -19 -7 -31 -4c-5 1 -8 2 -11 4l-166 96c-1 1 -3 1 -4 2v1c-1 1 -2 1 -3 2v2c-1 0 -1 0 -1 1c-1 1 -1 1 -1 2v1v1v44v44h1c0 5 3 9 9 12l135 78v-17c0 -2 -1 -3 -3 -4c-8 -4 -12 -9 -12 -14
v-8c0 -2 -1 -3 -4 -4c-11 -3 -17 -8 -17 -14v-35c0 -3 1 -5 4 -8c4 -3 6 -2 6 4v28c0 6 6 11 17 15l4 4v7c0 6 4 11 12 15h1c1 1 2 3 2 4v224c0 7 4 12 12 17s18 7 29 7s21 -2 29 -7s12 -10 12 -17v-190zM408 167v11c-1 5 -4 9 -10 12c-7 3 -15 4 -24 4s-17 -1 -24 -4
s-10 -7 -10 -12v-11c0 -5 3 -10 10 -13s15 -5 24 -5s17 2 24 5s10 8 10 13z" />
    <glyph glyph-name="E" unicode="E" 
d="M428 396c47 -48 71 -105 71 -172s-24 -124 -71 -171c-48 -48 -105 -72 -172 -72s-124 24 -171 72c-48 47 -72 104 -72 171s24 124 72 172c47 47 104 71 171 71s124 -24 172 -71zM270 -11c63 3 116 29 159 76c45 49 65 106 62 172c-4 64 -29 117 -75 160
c-50 45 -108 66 -173 62c-20 -1 -37 -4 -52 -9c-43 -12 -79 -34 -108 -67c-45 -49 -65 -106 -62 -173c3 -61 29 -114 77 -159c47 -45 105 -65 172 -62zM304 452c-16 3 -32 5 -48 5c-8 0 -16 0 -24 -1c24 3 48 2 72 -4zM25 199c3 -36 15 -69 35 -99c8 -12 16 -23 25 -33
c-41 44 -62 96 -62 157c0 64 23 119 69 165c39 39 86 62 140 67c-8 -1 -16 -2 -24 -4c-1 -1 -1 -2 -2 -4s-2 -3 -3 -4c1 -4 -2 -8 -9 -13c-1 0 -1 1 -2 2l-1 1h-3c-1 -1 -2 -1 -3 0s-2 3 -1 5c-1 0 -1 1 -2 2s-2 2 -3 2c-9 -3 -23 -9 -42 -19c-2 -4 -3 -7 -4 -8h1l2 -2
c1 2 3 4 5 6c1 2 3 3 5 3c1 -5 3 -11 5 -18h5c0 -1 1 -2 2 -3l3 -3c-2 -6 -5 -9 -10 -10c-1 -1 -1 -2 -2 -3s-3 -2 -5 -2c-2 -1 -4 -1 -5 -2h3c2 0 3 -1 2 -2s-2 -1 -5 -1c-3 -1 -4 -2 -4 -4c1 -1 2 -1 4 -1c1 0 2 0 2 -1s0 -1 -1 -1c-1 -1 -1 -1 -1 -2c2 -1 3 -2 3 -4
c-1 -1 -3 -2 -6 -3c-3 -2 -6 -3 -7 -4c-1 0 -1 1 -1 2s0 2 -1 3c-1 -1 -2 -3 -4 -4c-3 -1 -4 -3 -5 -4s-1 -1 0 -1c1 -1 1 -2 1 -3c-1 0 -3 -1 -5 -3s-4 -3 -5 -3c-3 -7 -5 -11 -6 -12v-1v-3c-1 -3 -2 -5 -5 -7s-6 -4 -7 -5c-1 -2 -2 -6 -1 -12c1 -7 0 -11 -2 -12
c-2 3 -3 8 -4 14c-1 -1 -3 -1 -4 0h-6c1 -3 0 -5 -1 -5s-2 0 -3 1s-2 1 -3 1c-3 -1 -5 -2 -7 -5h2c7 -2 11 -5 13 -10c-6 -2 -9 -3 -10 -2c0 3 -2 6 -6 7h-1v-2c-1 -7 0 -14 2 -19c3 -1 6 1 8 6c1 2 3 4 5 4c-1 0 -1 1 -1 1c0 1 1 2 4 2v1c-1 1 -1 1 -1 2c11 3 16 1 16 -6
c-5 1 -8 -1 -10 -4c-1 1 -2 2 -4 2h-1c0 -2 -1 -4 -2 -7s-2 -6 -2 -7c5 1 8 1 9 -2s1 -6 0 -9c-1 -4 0 -7 3 -9c3 3 6 3 11 0c1 4 5 8 12 11c0 -1 1 -1 4 -1c0 -1 1 -1 2 -2s2 -2 2 -3c3 0 6 0 7 -1c1 2 4 3 8 2c0 -2 2 -4 6 -7c3 -3 5 -6 6 -8c12 1 19 -5 22 -18
c1 -1 3 -1 6 -2c2 -1 4 -1 6 -2s3 -3 4 -5c5 1 12 0 19 -3s11 -7 12 -11c1 -3 0 -7 -3 -12s-6 -8 -9 -10c1 -5 0 -11 -1 -18s-3 -10 -6 -11c0 -1 -1 -1 -3 0h-4c-1 -1 -2 -3 -5 -4s-5 -3 -6 -5c0 -1 0 -2 1 -3v-4c-1 -1 -3 -4 -6 -9c-3 -6 -6 -10 -9 -11c0 0 -2 0 -5 1
c2 -4 2 -7 0 -9c-2 -3 -5 -3 -10 -2v-6c-2 -1 -4 -1 -6 0c0 -1 1 -1 3 -1c1 -1 2 -2 2 -3s0 -1 -1 -1c-1 -1 -2 -1 -2 -1v-5h-2c-1 -1 -2 -1 -2 -2c1 -1 2 -1 3 -2s2 -2 2 -3c-2 -4 -4 -7 -5 -9c3 -5 7 -10 14 -15c-7 -3 -12 -1 -16 4c0 0 1 2 2 5c-1 0 -1 0 -1 -1
s0 -2 -1 -2c-5 2 -9 9 -13 22c0 1 -1 1 -2 2s-2 2 -1 3c0 1 1 1 2 1c1 3 0 7 -2 12s-3 8 -3 11c-1 2 -1 5 0 9s1 7 1 9c-2 17 -3 30 -3 37c-4 5 -7 8 -10 8c-5 6 -9 14 -12 23c-2 1 -4 4 -5 7s-1 5 1 8c-1 4 -2 7 -2 8s1 3 3 7c2 3 3 5 3 5c1 8 0 13 -3 15c-1 0 -1 -1 -1 -2
c-1 -1 -1 -2 -1 -2c-1 0 -2 1 -3 2s-3 1 -4 1c0 1 -1 2 -2 3l-2 2c-1 3 -3 6 -7 9c-5 2 -7 4 -8 7c-1 0 -1 0 -2 -1s-2 -1 -3 -1c-1 1 -2 3 -5 4s-4 3 -5 4s-2 3 -3 6c0 1 0 2 1 3v3c-1 1 -2 3 -3 6c-2 3 -3 5 -3 6c0 -1 0 -2 1 -4c1 -3 1 -5 2 -6c0 -1 -1 -3 -2 -4
c-1 1 -2 2 -2 5c-1 2 -1 3 -2 4c-10 -24 -13 -55 -10 -92zM303 413v-6c-2 -3 -5 -4 -8 -5c-1 1 -2 1 -3 2s-2 1 -3 2c0 3 0 5 -1 8c2 0 4 0 5 1c1 0 2 1 3 2l2 2c1 -1 2 -1 4 0c0 1 0 1 -1 1s-2 0 -2 1c1 1 1 2 2 5c1 2 2 3 3 4h6v-1c-1 -1 -1 -1 -1 -2c3 0 4 -1 4 -2
s0 -1 -1 -2s-1 -2 0 -3c2 0 3 -2 2 -5c4 -1 6 -4 6 -7h2c1 -1 2 -1 2 -2c1 -1 1 -1 0 -2s-1 -2 0 -3c1 0 3 0 4 1s1 2 2 3s1 2 2 2c1 1 4 1 10 2c-5 9 -3 14 4 15c2 -4 2 -8 0 -12c1 0 2 0 3 -1c2 -1 3 -3 2 -5c2 -2 5 -3 10 -2c4 1 7 1 10 0c1 0 1 2 2 5s2 5 3 6
c1 0 2 0 3 -1s1 -2 2 -2c0 1 0 2 -1 4s-2 4 -1 6c-2 1 -5 2 -8 4s-6 3 -8 4c0 -1 1 -1 2 -2s1 -3 1 -4c-2 -1 -4 -5 -5 -14c-1 -1 -4 -1 -7 0c-3 0 -5 1 -6 3c0 1 1 2 2 3s2 1 2 2c-3 4 -5 7 -6 10c-1 -1 -3 -1 -5 -2s-4 -2 -5 -2c-3 1 -5 4 -6 9s-1 9 2 11
c-9 4 -19 6 -28 8c44 -8 83 -30 117 -63c7 -8 14 -15 21 -24l-3 3l-6 6c1 -7 4 -13 9 -20c1 0 3 0 5 -1c-1 -1 -2 -3 -5 -6c0 -2 1 -3 2 -5c1 -3 4 -5 9 -5c0 4 -2 8 -5 12c0 4 -1 7 -2 10v1c28 -40 43 -85 43 -136c0 -64 -23 -119 -68 -164c-46 -46 -101 -69 -165 -69
c-50 0 -95 14 -134 43c4 -3 7 -5 10 -7c17 -10 28 -14 35 -11c0 1 0 2 -1 3s-1 1 -2 0l1 -2c-6 -1 -10 0 -12 3c1 2 1 4 0 6c-1 -1 -3 -2 -5 -1s-3 2 -3 4h3h3v2s1 2 2 2s2 0 3 -1c0 -1 -1 -2 -2 -3c1 -1 3 -2 4 -3l3 -3c0 1 0 3 -1 4s-1 1 -1 2c-1 4 1 7 6 8s8 0 9 -3
c-5 -1 -8 -3 -8 -6c3 -2 7 -5 13 -10c5 -5 10 -9 13 -11c1 -1 1 -2 0 -3s-1 -1 -1 -2c30 -9 50 -11 61 -6h5c2 -1 3 -1 4 0c2 0 6 2 11 5s8 4 10 4h3c1 -1 2 -1 3 -1c1 1 3 2 5 3c1 1 2 2 3 2c5 3 14 5 27 7c0 -1 1 -2 3 -2s3 -1 3 -2c1 0 4 0 9 -1c3 3 9 5 18 4
c39 19 70 45 94 80c23 35 36 76 38 125c1 22 -2 46 -9 72c-2 0 -4 0 -6 1c-3 1 -5 1 -6 1c0 -1 1 -3 3 -5c1 -2 2 -3 3 -4c0 -1 0 -3 -1 -4c-1 -2 -2 -4 -2 -5c-2 -2 -6 -4 -11 -7s-9 -5 -10 -6v-2c0 -2 0 -3 -1 -2c-1 0 -2 1 -3 3s-2 3 -3 4c0 3 -2 8 -5 13s-5 9 -5 13
c-1 1 -1 2 -2 3s-2 1 -2 2c-2 7 -4 11 -7 10c1 -7 4 -14 10 -21c-1 -3 0 -5 1 -8s4 -7 7 -11s4 -7 5 -8c-1 -3 -2 -4 -1 -5c8 2 13 3 14 4c1 -5 0 -10 -3 -17s-5 -11 -5 -14c-1 0 -1 0 -2 -1s-1 -1 -2 -1c0 -4 -2 -8 -6 -12c-5 -4 -7 -8 -6 -12c0 -1 1 -2 2 -3l3 -3
s1 -4 0 -9s-2 -9 -2 -10c-7 -6 -12 -10 -13 -13c3 -5 3 -9 0 -14h-3c-1 -1 -2 -4 -3 -7s-3 -6 -4 -8c-1 -3 -3 -5 -5 -6c-1 -3 -6 -8 -15 -14c-2 1 -4 1 -7 0s-6 -2 -8 -2s-3 1 -4 4c-1 1 -1 1 0 2s1 1 1 2c-6 9 -9 18 -10 28c-1 2 -2 5 -3 8c-2 3 -3 6 -4 8c0 3 1 7 3 12
c1 5 2 8 3 11c0 2 -2 5 -5 9c-1 3 -2 7 -5 12c-3 4 -4 7 -5 9c3 6 4 12 1 17c-3 -2 -6 -2 -9 1c-4 3 -6 4 -7 5c-3 0 -6 -1 -10 -3c-5 -2 -8 -3 -9 -4c-1 0 -3 1 -4 2c-2 1 -4 1 -5 1s-3 -1 -5 -2c-3 -1 -5 -2 -6 -1c-7 1 -13 8 -20 23c-5 3 -7 5 -8 7c0 1 -1 4 -2 7
c2 3 3 7 4 12c0 4 -1 8 -4 11c1 2 3 5 6 10c2 4 4 7 7 10c2 3 5 5 8 6c1 1 3 5 5 11c2 5 5 8 9 9c0 2 1 4 3 7c0 0 -4 1 -11 3c0 1 0 5 1 11c1 5 0 9 -1 11c0 3 3 3 10 2s11 -2 13 -1c3 6 -1 11 -10 16c0 3 0 4 1 4c2 0 4 1 7 2s5 1 7 0l-1 1s-2 1 -1 2c-6 -1 -11 -1 -16 0
c1 1 2 1 3 2s1 2 1 3c-3 -1 -4 0 -4 2h4v3c-1 1 -1 1 -1 2c1 1 2 1 4 1c0 1 0 1 -1 2s-1 1 0 2c-1 0 -2 0 -5 -1zM114 406c-4 -1 -9 -5 -15 -12h2h1c-1 -6 -1 -10 0 -12c3 1 4 2 5 5c0 2 0 4 -1 6c0 1 1 2 2 3s2 1 3 2s1 2 2 4c1 1 1 3 1 4zM420 358c7 -3 11 -4 14 -4
c-1 3 -3 5 -6 8c-4 2 -6 4 -7 6h1s2 0 2 1c-1 0 -2 1 -1 2h-3c-2 0 -3 0 -3 -1c2 -1 3 -2 2 -3c-4 1 -7 1 -8 0c-1 2 -1 3 0 4c-1 0 -2 0 -3 1s-3 1 -4 1c-1 -1 -1 -3 -2 -5c-1 -3 -2 -4 -3 -5l4 -4c5 1 10 1 17 -1zM390 342v-2c-7 3 -12 11 -14 22c-3 1 -6 2 -7 2
c0 -1 1 -3 4 -4c2 -2 3 -4 3 -6c-1 -1 -1 0 -2 1s-2 1 -3 1c0 -1 0 -1 1 -2v-3c-2 0 -3 -1 -4 -3c0 -1 0 -1 -1 0s-2 1 -3 1c1 -3 1 -4 1 -5h-2c-1 -1 -1 -1 -2 -1c-4 5 -6 8 -5 9c1 -1 4 -1 9 0c-1 4 -4 8 -9 12c-5 3 -9 6 -10 8c-5 -3 -10 -4 -15 -2c0 -2 -2 -4 -5 -7
s-5 -7 -4 -11c-4 -4 -10 -6 -18 -7c3 -1 6 -2 7 -2c1 -1 3 0 7 1c3 1 5 2 6 2c5 1 12 1 22 0c0 0 1 0 2 1s1 1 2 1c1 -1 3 -1 5 -2c-1 -1 0 -3 1 -4c1 -2 1 -4 0 -6c3 -1 8 -4 13 -7c5 -4 9 -7 12 -8c1 1 1 3 0 4s-1 2 0 3s2 1 5 2c2 0 3 0 3 1c5 -5 15 -9 31 -10
c1 2 1 5 1 9v7c-1 1 -2 1 -3 0s-3 -1 -4 -1c0 0 0 1 -1 2s-1 1 -2 1c-5 -2 -10 0 -15 7c1 7 -1 11 -4 11c0 -3 1 -8 2 -13c-1 0 -1 0 -1 -1v-1c-1 0 -1 0 -1 1c-1 1 -2 0 -2 -1zM459 298c-2 1 -4 3 -5 7c-2 3 -4 5 -7 6c1 -1 2 -3 3 -6s1 -4 1 -5h4c0 -3 1 -6 2 -7
c2 -1 5 1 8 6c-1 0 -1 0 -2 -1s-3 -1 -4 0zM92 283v3c1 1 2 1 4 1c1 0 2 0 3 -1c0 -2 -1 -3 -2 -3c-2 -1 -4 -1 -5 0zM433 133c-1 -1 -3 -1 -5 -1c-4 7 -3 13 3 20c-3 5 -2 11 2 16c1 1 3 3 6 5c3 1 6 3 7 5v4c0 1 1 3 2 4c2 -1 3 -3 4 -6c0 -3 0 -5 -1 -7
c-1 -3 -3 -6 -4 -9s-2 -6 -3 -7c-1 -7 -3 -11 -5 -12c1 -1 1 -2 1 -3c-1 -1 -1 -2 -1 -3l-3 -3zM92 76c2 0 4 -1 5 -3c1 -3 0 -4 -2 -5c-2 0 -3 3 -3 8zM92 60c10 -10 20 -19 30 -26c-13 9 -25 20 -37 33zM140 37c0 -2 -2 -3 -5 -4c-1 2 -2 4 -1 6c2 0 4 -1 6 -2zM146 31
c-2 -1 -4 -1 -5 0c0 1 0 1 1 2s1 1 1 2c3 -1 5 -2 5 -3c-1 0 -1 0 -2 -1z" />
    <glyph glyph-name="F" unicode="F" 
d="M238 112l72 224h-36l-72 -224h36zM12 203l142 -83v56c-40 24 -70 40 -89 49h-1c15 8 29 16 42 23s24 12 31 16c7 3 12 6 17 9v55c-13 -7 -37 -21 -70 -40s-57 -33 -72 -42h1c-9 -4 -13 -11 -13 -20c0 -10 4 -18 12 -23zM500 245l-142 83v-56c40 -24 70 -40 89 -49h1
c-15 -8 -29 -15 -42 -22s-23 -13 -30 -16c-7 -4 -13 -7 -18 -10v-55c13 7 37 21 70 40s57 33 72 42h-1c9 4 13 11 13 20c0 10 -4 18 -12 23z" />
    <glyph glyph-name="K" unicode="K" horiz-adv-x="333" 
d="M151 416h-63l22 47c1 3 2 5 4 6c5 7 13 11 22 11c4 0 8 -1 12 -3c13 -6 19 -16 16 -30c-1 -3 -1 -5 -2 -7zM207 414l-2 2h-38l8 18l3 6c6 7 13 10 22 10c5 0 9 -1 12 -2c13 -6 19 -16 16 -31c0 -3 -1 -5 -2 -7l-63 -137c-15 11 -32 19 -52 24l19 40c36 1 61 16 74 43
c1 1 2 3 2 4c1 1 1 2 2 3c1 3 1 5 2 8c1 6 1 11 0 15c-1 2 -2 3 -3 4zM182 280l57 124c1 2 3 4 4 6c6 7 13 11 22 11c4 0 8 -1 12 -3c13 -6 19 -16 16 -31c-1 -3 -1 -5 -2 -7l-57 -123c0 0 0 -1 -1 -2c-1 -2 -3 -4 -4 -6c-2 -2 -4 -4 -7 -5c-4 -3 -9 -4 -14 -4
c-4 0 -8 1 -12 3c-7 3 -11 9 -14 16c-1 1 -1 3 -2 4v8s1 5 2 7v2zM243 242l36 77c1 5 4 9 8 12c3 3 7 5 11 6c3 1 5 1 7 1c13 0 22 -6 27 -19c1 -1 2 -4 2 -9v-116c0 -3 -1 -7 -2 -10c-1 -1 -1 -2 -2 -3l-45 -92v-121h-185v164l-91 120l-4 6c-3 6 -5 12 -5 19c0 5 1 10 3 15
l2 4l37 79c1 3 2 6 4 9c7 12 18 18 33 18h118c-1 -2 -1 -5 -2 -8c-1 -2 -1 -4 -2 -6c-1 -3 -3 -5 -4 -7c-1 -1 -2 -2 -2 -3c-11 -15 -28 -24 -50 -26c-2 0 -5 0 -8 -1h-2h-1h-5l-31 -65l9 -2c2 0 5 0 8 -1s8 -2 15 -4l21 -9c6 -3 12 -8 19 -15s12 -14 15 -22
c5 -13 8 -24 8 -33v-54h15v54c0 10 -2 19 -5 28c5 -1 9 -2 13 -2s8 1 13 2l6 3c1 -1 1 -3 1 -4c1 -3 2 -6 4 -9c3 -7 8 -11 15 -14c4 -2 9 -3 14 -3h1c7 1 13 3 18 6c3 2 5 4 7 7c1 1 2 3 3 4s1 2 1 2l18 39l-13 6l-19 -40c-1 -1 -2 -3 -3 -4c-3 -3 -7 -5 -12 -6
c-3 0 -6 1 -9 2c-7 3 -11 9 -12 16v2c1 3 1 5 2 7z" />
    <glyph glyph-name="L" unicode="L" 
d="M437 405l27 27v-83h-83l35 35c-44 45 -97 67 -160 67s-116 -22 -160 -66c-45 -45 -67 -98 -67 -161c0 -32 6 -62 19 -91l-26 -12c-15 33 -22 67 -22 103c0 71 25 131 75 181s110 75 181 75s131 -25 181 -75zM327 339l14 -40c-5 1 -9 2 -14 2s-9 -1 -14 -2l13 35zM463 315
l27 13c15 -33 22 -68 22 -104c0 -71 -25 -131 -75 -181s-110 -75 -181 -75s-131 25 -181 75l-26 -26v83h83l-36 -36c44 -45 97 -67 160 -67s116 22 161 67c44 44 66 97 66 160c0 32 -7 62 -20 91zM199 308c-21 -1 -39 -10 -54 -25c-15 -16 -23 -35 -23 -56
c0 -22 8 -41 23 -56c15 -16 33 -25 54 -26c-12 -5 -25 -8 -38 -8c-25 0 -46 9 -63 26c-18 17 -27 39 -27 64s9 46 27 64c17 17 38 26 63 26c13 0 26 -3 38 -9zM249 306l37 -18c-8 -5 -15 -12 -20 -20l-15 34zM406 306l-18 -38c-5 8 -12 15 -20 20l33 16zM269 227v-1
c0 -16 6 -30 17 -41s25 -17 41 -17s30 6 42 17c11 11 17 25 17 41v1c0 16 -6 30 -17 41c-12 11 -26 17 -42 17s-30 -6 -41 -17s-17 -25 -17 -41zM254 240l1 1c-1 -5 -2 -9 -2 -14s1 -9 2 -14l-39 14zM439 227l-39 -14c1 5 1 9 1 14s0 9 -1 14zM266 184v1c5 -8 12 -15 20 -20
l-37 -18zM406 147l-37 18c7 5 14 12 19 20zM314 152l-1 2c5 -1 9 -1 14 -1s9 0 14 1l-14 -40z" />
    <glyph glyph-name="M" unicode="M" horiz-adv-x="599" 
d="M409 -32h36c8 50 31 86 70 109c17 7 30 18 41 33c10 14 16 30 17 48c17 19 26 41 26 66c0 22 -6 42 -19 59c2 8 3 16 3 25c0 21 -6 41 -19 58s-29 28 -49 34c-8 17 -20 30 -35 41c-16 11 -34 16 -53 16c-7 0 -15 -1 -23 -3c-18 17 -40 26 -65 26c-19 0 -37 -5 -53 -16
c-14 7 -29 11 -45 11c-34 0 -61 -14 -80 -42c-4 1 -6 1 -7 1c-23 0 -44 -7 -61 -21c-17 -15 -28 -33 -33 -55c-18 -8 -32 -20 -43 -36c-11 -17 -17 -35 -17 -55c0 -27 10 -50 29 -69s42 -29 69 -29c20 0 38 5 54 16c16 -11 34 -17 54 -17c19 0 37 6 54 17
c11 -11 24 -20 40 -27c15 -7 28 -18 39 -34c10 -17 15 -34 15 -53v-103h35v109c-1 41 14 69 43 86c9 5 16 11 21 16l2 2c7 8 12 18 15 29c-7 2 -15 3 -23 3c-9 0 -19 -2 -28 -6c-7 -2 -11 0 -13 6c-3 6 -1 10 5 13c11 5 23 7 36 7c9 0 17 -1 25 -3c0 21 -7 39 -22 54
s-34 22 -55 22c-15 0 -30 4 -43 11c-13 -15 -19 -31 -19 -50v-1v-1c1 -20 8 -37 22 -51c5 -5 4 -10 -1 -15c-2 -1 -4 -2 -7 -2s-5 1 -7 3c-15 16 -24 35 -26 57c-5 1 -11 1 -16 1c-13 0 -25 -3 -36 -9c-1 -1 -3 -1 -5 -1c-4 0 -7 2 -9 5c-3 6 -1 11 5 14c14 7 29 11 45 11
c5 0 11 0 16 -1c2 19 9 36 21 51c-13 10 -22 22 -28 36c-17 -13 -36 -19 -57 -19c-7 0 -14 1 -21 3c-3 -24 -13 -44 -31 -60c-19 -16 -40 -24 -65 -24h-1c-21 0 -38 -7 -53 -22c-2 -2 -4 -3 -7 -3s-6 1 -7 4c-5 5 -5 9 0 14c19 18 41 27 67 27h1c7 0 13 1 20 3
c-10 13 -23 23 -39 28c-6 2 -8 6 -6 13c2 6 6 8 13 6c21 -7 38 -20 51 -39c23 13 35 33 38 59c-11 5 -20 11 -28 20c-5 5 -5 9 0 14s9 5 14 0c8 -8 17 -14 28 -18c9 -3 17 -4 26 -4c19 0 36 6 50 18c-1 7 -2 13 -2 19c0 7 4 10 11 10c3 0 5 -1 7 -3s3 -4 3 -7
c0 -19 6 -36 19 -50c13 -15 29 -23 48 -26c3 23 12 42 27 58c5 5 10 5 15 0s5 -9 0 -14c-13 -13 -20 -28 -22 -45c33 -3 58 -20 75 -50c18 2 33 10 46 24c5 5 10 6 15 1s5 -10 0 -15c-15 -15 -33 -25 -54 -30c3 -9 4 -17 4 -26c0 -20 -5 -37 -14 -52c19 -9 34 -22 44 -41
c3 -5 2 -10 -4 -13c-1 -1 -3 -2 -5 -2c-3 0 -6 2 -8 5c-9 17 -23 28 -41 35c-6 -6 -13 -11 -22 -16c-22 -13 -33 -36 -33 -69v-109z" />
    <glyph glyph-name="N" unicode="N" horiz-adv-x="562" 
d="M306 362h218c11 0 21 -4 29 -11c7 -8 11 -17 11 -28v-316c0 -11 -4 -20 -11 -27c-8 -8 -18 -12 -29 -12h-484c-11 0 -20 4 -27 12c-8 7 -12 16 -12 27v316c0 11 4 20 12 28c7 7 16 11 27 11h218l-89 89c-3 3 -5 7 -5 12s2 9 5 12s7 5 12 5s9 -2 12 -5l89 -89l90 89
c3 3 7 5 12 5s9 -2 12 -5s4 -7 4 -12s-1 -9 -4 -12zM429 81v168c0 19 -7 35 -20 48s-29 20 -48 20h-253c-19 0 -35 -7 -48 -20s-20 -29 -20 -48v-168c0 -19 7 -35 20 -48s29 -20 48 -20h253c19 0 35 7 48 20s20 29 20 48zM520 259c7 7 10 15 10 24s-3 17 -10 24
s-15 10 -24 10s-17 -3 -24 -10s-10 -15 -10 -24s3 -17 10 -24s15 -10 24 -10s17 3 24 10zM520 169c7 7 10 15 10 24s-3 17 -10 24s-15 10 -24 10s-17 -3 -24 -10s-10 -15 -10 -24s3 -17 10 -24s15 -10 24 -10s17 3 24 10z" />
    <glyph glyph-name="O" unicode="O" horiz-adv-x="914" 
d="M211 386h504c5 0 11 -1 14 -6c5 -3 6 -9 6 -14v-304c0 -6 -1 -10 -6 -15c-3 -3 -9 -6 -14 -6h-504c-7 0 -13 3 -15 6c-5 5 -8 9 -8 15v304c0 5 3 11 8 14c2 5 8 6 15 6zM707 70v287h-489v-287h489zM512 19h310v-18c0 -5 -2 -8 -7 -13c-4 -3 -9 -5 -15 -5h-676
c-7 0 -12 2 -15 6c-4 5 -6 8 -7 11c-1 2 -1 3 -1 5v14h311v-6c0 -6 2 -8 7 -8h87c3 0 6 2 6 8v6z" />
    <glyph glyph-name="P" unicode="P" horiz-adv-x="531" 
d="M394 305l-115 9c-5 1 -7 3 -7 6s1 5 3 6l22 10l-29 61c-16 33 -31 55 -46 67c-7 5 -19 11 -37 16h146c31 0 52 -10 63 -31l23 -47l26 12l6 2c3 0 4 -2 4 -6s-1 -8 -3 -11zM188 281l-108 72l62 99c5 9 16 13 33 13c27 0 53 -28 78 -83zM415 160l-65 107l111 64l65 -98
c4 -6 6 -12 6 -18c0 -13 -7 -26 -22 -38c-14 -11 -28 -17 -41 -17h-54zM157 200l-60 -95c-9 -13 -14 -27 -14 -41c0 -8 1 -16 3 -25l-79 138c-5 9 -7 16 -7 23s4 17 11 28l25 40l-24 14c-3 2 -5 4 -5 5c0 5 3 8 8 8l116 3l53 -99c2 -3 3 -6 3 -9s-2 -5 -6 -5zM532 174
l-82 -148c-7 -14 -20 -21 -39 -21h-50v-31c0 -3 -2 -5 -5 -6s-7 2 -12 9l-60 91l58 100c1 2 3 3 5 3c4 0 6 -4 6 -11v-19h91c21 0 37 2 48 6c15 5 28 14 40 27zM260 6h-126c-21 0 -32 17 -32 51c0 13 3 25 9 37c4 8 13 22 28 43h121v-131z" />
    <glyph glyph-name="I" unicode="I" 
d="M132 171l-1 -1c0 6 -2 11 -6 15s-9 6 -15 6c-3 0 -7 -2 -12 -5c-9 -9 -18 -14 -29 -14c-12 0 -22 4 -30 13c-8 8 -12 18 -12 30s4 22 12 31s18 13 29 13s21 -5 30 -14c5 -3 9 -5 12 -5c11 0 17 6 20 17c-2 25 -4 51 -7 76c23 1 53 3 91 8c9 -3 15 -9 16 -18
c0 -3 -1 -7 -4 -12c-8 -10 -12 -20 -11 -31s7 -21 16 -28s20 -10 32 -9s22 7 30 16c7 9 10 19 9 30s-7 20 -17 28c-4 4 -6 8 -7 12c-1 9 3 15 12 20c38 3 72 3 103 0c-5 -23 -8 -51 -9 -83c1 -5 4 -9 8 -12s9 -5 14 -5c3 0 7 2 12 6c8 10 17 15 28 15c12 1 22 -3 31 -11
c8 -8 12 -18 13 -30s-3 -22 -10 -31c-8 -9 -18 -13 -29 -14s-21 3 -30 12c-5 3 -10 5 -13 4c-5 0 -10 -2 -14 -6c-4 -5 -6 -10 -5 -16c1 -8 2 -20 4 -37c1 -17 2 -29 3 -37c-27 -6 -58 -10 -92 -12c-8 4 -12 10 -12 18c0 3 2 7 5 12c9 9 14 19 14 30s-4 21 -13 29
s-19 12 -31 12s-22 -4 -30 -12c-9 -9 -13 -19 -13 -30s5 -20 14 -29c3 -5 5 -9 5 -12c1 -8 -3 -14 -10 -18c-33 1 -68 4 -104 8c1 23 2 47 3 71z" />
    <glyph glyph-name="Q" unicode="Q" horiz-adv-x="511" 
d="M425 309l81 81c4 -13 6 -26 6 -38c0 -35 -12 -65 -37 -90s-56 -38 -91 -38c-19 0 -37 4 -55 13l-256 -257c-8 -8 -18 -12 -30 -12s-22 4 -30 13c-9 8 -13 18 -13 30c0 11 4 21 12 30l257 256c-9 18 -13 36 -13 55c0 35 13 66 38 91s55 37 90 37c11 0 24 -2 37 -6l-80 -79
v-86h84z" />
    <glyph glyph-name="R" unicode="R" 
d="M256 448l224 -96l-224 -96l-224 96zM32 64v224l192 -80v-224zM288 -16v224l192 80v-224z" />
    <glyph glyph-name="T" unicode="T" 
d="M256 354c0 12 -2 23 -6 32c-5 9 -10 17 -17 25s-12 14 -14 18c-7 10 -7 21 0 32s20 18 41 19c-12 -9 -18 -18 -19 -29s1 -22 7 -32s10 -21 13 -32c2 -12 0 -23 -5 -33zM233 325c-2 9 -5 16 -10 22c-5 5 -10 10 -16 15c-7 5 -11 8 -14 11c-9 8 -12 19 -9 32s13 21 30 26
c-10 -9 -14 -18 -12 -28c1 -11 5 -19 11 -26s12 -16 17 -25c5 -10 6 -19 3 -27zM424 259c23 -5 43 -15 58 -31s23 -34 23 -55c0 -24 -10 -45 -31 -62s-46 -26 -75 -26c-3 0 -6 0 -10 1c-36 -79 -94 -118 -174 -118c-45 0 -84 14 -116 41s-55 63 -70 107s-22 94 -22 150
c0 15 20 29 61 40s90 16 148 16c57 0 106 -5 147 -16s61 -25 61 -40v-7zM349 244c29 7 47 14 54 22c-7 9 -25 16 -54 23c-38 9 -82 13 -133 13s-96 -4 -134 -13c-29 -7 -48 -14 -55 -23c7 -8 26 -15 55 -22c38 -9 83 -13 134 -13s95 4 133 13zM398 108c24 1 42 8 54 20
s18 26 18 42c0 12 -4 23 -13 33c-9 9 -20 15 -35 18c-3 -42 -11 -80 -24 -113z" />
    <glyph glyph-name="colon" unicode=":" 
d="M401 419h72c0 -58 -14 -108 -42 -150c-28 -43 -62 -67 -103 -72c-6 -6 -12 -12 -18 -17h3v-29h-29v-75h29v-30h30v-60h-178v60h30v30h29v75h-29v29h3c-6 5 -12 10 -17 17c-42 5 -77 28 -105 71c-29 43 -43 93 -43 151h74c-1 14 -1 27 -1 38h297c0 -11 -1 -24 -2 -38z
M110 389h-46c4 -36 14 -68 31 -96c16 -28 36 -47 60 -58c-23 42 -38 93 -45 154zM442 389h-43c-7 -60 -22 -111 -45 -153c23 11 43 31 59 59c15 27 25 59 29 94z" />
    <glyph glyph-name="numbersign" unicode="#" 
d="M256 448l256 -256l-48 -48l-48 48l-32 -192h-96v96h-64v-96h-96l-32 192l-48 -48l-48 48zM288 256c9 9 13 19 13 32s-4 23 -13 32s-19 13 -32 13s-23 -4 -32 -13s-13 -19 -13 -32s4 -23 13 -32s19 -13 32 -13s23 4 32 13z" />
    <glyph glyph-name="U" unicode="U" 
d="M256 373l203 -106l-64 -36v-92c0 -6 2 -11 6 -14c4 -4 7 -6 10 -7c2 -1 4 -1 5 -1v-21l-11 1c-7 1 -14 5 -21 12s-11 17 -11 30v80l-117 -59l-203 107zM160 181l96 -46l96 46v-42c1 -5 -2 -11 -9 -17s-15 -11 -23 -15l-64 -32l-75 32c-14 7 -21 17 -21 32v42z" />
    <glyph glyph-name="J" unicode="J" 
d="M141 177l6 19l6 18l-13 15l-13 14l-3 -1v7c1 6 4 12 11 18c6 5 14 9 25 12v-113c0 -3 1 -6 4 -8c2 -3 5 -4 9 -4h2v-131h-8v-32h-7v-12h81v12h-7v32h-6v131h40v-131h-8v-32h-7v-12h81v12h-7v32h-6v131h3c3 0 6 1 9 4c2 2 3 5 3 8v113c19 2 35 8 49 19c13 10 21 23 23 39
c1 6 1 12 0 17l3 1l6 18l6 19l-26 28l-5 -1l6 -30c2 -8 -1 -13 -9 -15h-3c-8 -2 -13 1 -14 10l-7 30l-5 -2l-12 -36l13 -15l13 -14h3v-6c-1 -7 -5 -14 -12 -20c-8 -6 -18 -10 -31 -11c-3 4 -6 6 -10 6h-49v6h19c3 0 6 1 9 4c2 2 3 5 3 8v19h7c4 0 6 2 6 7v25c0 4 -2 6 -6 6
h-7v25c0 3 -1 6 -3 9c-3 2 -6 3 -9 3h-43v7c11 1 16 7 16 18c0 5 -2 10 -5 13c-4 3 -8 5 -13 5s-10 -2 -13 -5c-4 -3 -6 -8 -6 -13c0 -10 5 -16 15 -18v-7h-43c-3 0 -6 -1 -8 -3c-3 -3 -4 -6 -4 -9v-25h-7c-4 0 -6 -2 -6 -6v-25c0 -5 2 -7 6 -7h7v-19c0 -3 1 -6 4 -8
c2 -3 5 -4 8 -4h19v-6h-48c-5 0 -8 -2 -10 -5c-18 -3 -34 -9 -47 -19s-21 -23 -23 -39c-1 -6 -1 -12 0 -17l-4 -1l-6 -18l-5 -19l12 -14l13 -15l6 1l-6 31c-2 8 1 13 9 14l3 1c8 1 13 -2 14 -10l7 -30zM237 453c0 3 1 6 3 9c2 2 5 3 8 3s6 -1 9 -3c2 -3 3 -6 3 -9
c0 -6 -3 -10 -9 -11c0 3 -1 4 -3 4s-3 -1 -3 -4c-5 1 -8 5 -8 11zM207 401c3 3 8 5 13 5s9 -2 12 -5s5 -7 5 -12s-2 -10 -5 -13c-3 -4 -7 -6 -12 -6s-10 2 -13 6c-4 3 -6 8 -6 13s2 9 6 12zM265 401c3 3 8 5 13 5s9 -2 12 -5s5 -7 5 -12s-2 -10 -5 -13c-3 -4 -7 -6 -12 -6
s-10 2 -13 6c-4 3 -6 8 -6 13s2 9 6 12zM277 334h-58c-3 0 -6 1 -8 4c-3 2 -4 5 -4 8s1 6 4 9c2 2 5 3 8 3h58c3 0 6 -1 9 -3c2 -3 3 -6 3 -9s-1 -6 -3 -8c-3 -3 -6 -4 -9 -4zM201 258v33c0 5 2 7 6 7h82c4 0 6 -2 6 -7v-33c0 -4 -2 -6 -6 -6h-25c-1 3 -2 6 -5 9l16 18
c1 1 1 3 0 4c-1 2 -3 2 -5 0l-16 -18c-2 1 -4 1 -6 1c-4 0 -7 -1 -10 -4s-5 -6 -6 -10h-25c-4 0 -6 2 -6 6z" />
    <glyph glyph-name="H" unicode="H" 
d="M271 360l136 100c1 1 2 1 3 1c7 3 14 0 23 -8c9 -9 16 -20 21 -35s7 -28 6 -39c-1 -12 -5 -19 -12 -22c-1 -1 -3 -1 -4 -1l-167 -11c-4 -1 -7 1 -8 5c-2 4 -1 7 2 10zM451 383c0 9 -2 20 -6 32c-5 12 -10 22 -16 29c-7 7 -12 9 -17 8c-5 -2 -7 -8 -7 -17
c-1 -10 1 -21 6 -33c4 -12 9 -21 16 -28c6 -7 12 -10 17 -8c5 1 7 7 7 17zM192 334c-7 7 -10 15 -10 25c0 9 4 17 11 24s15 10 24 10s17 -3 24 -10s10 -16 10 -25s-3 -17 -10 -24s-15 -10 -24 -10c-10 0 -18 3 -25 10zM228 339c1 -3 5 -3 10 0s7 7 5 10s-5 2 -10 -1
s-7 -6 -5 -9zM313 296l8 36c1 4 4 6 9 6c7 0 10 -2 10 -7c0 -40 -1 -63 -4 -68s-7 -7 -12 -5l-45 15l-14 -78l42 -202c0 -5 -2 -8 -6 -9c-3 0 -5 1 -6 2c-2 1 -3 1 -3 2l-1 1l-66 152l-66 -152l-1 -1l-3 -3c-2 -1 -4 -1 -7 -1c-5 1 -7 4 -6 9l42 202l-14 69l-102 -80
c-2 -1 -4 -2 -7 -2c-6 0 -9 3 -9 8c0 1 1 3 2 4l116 117l92 6z" />
    <glyph glyph-name="less" unicode="&#x3c;" horiz-adv-x="515" 
d="M351 444c30 -13 55 -29 77 -50c21 -21 38 -46 51 -76c13 -29 19 -60 19 -92s-6 -62 -19 -92s-30 -55 -51 -77c-22 -20 -47 -37 -77 -50c-29 -12 -60 -19 -92 -19s-63 7 -93 19c-29 13 -56 30 -76 50c-22 22 -39 47 -52 77c-12 30 -19 60 -19 92s7 63 19 92
c13 30 30 55 52 76c20 21 47 37 76 50c30 12 61 19 93 19s63 -7 92 -19zM373 292l66 24c1 10 -5 27 -19 51c-24 28 -53 49 -88 62c-21 0 -38 -3 -50 -11c10 -36 17 -63 20 -81zM223 284l64 53c-5 23 -11 50 -21 81c-6 1 -13 3 -23 4s-18 2 -23 2c-6 2 -9 2 -10 2
c-11 -4 -22 -9 -32 -16c-11 -6 -19 -12 -26 -18s-13 -13 -20 -20c-6 -7 -11 -12 -12 -16c-2 -2 -4 -5 -5 -7c0 -7 0 -14 1 -23c1 -8 2 -14 3 -18c0 -3 1 -6 1 -8zM164 420c-35 -19 -63 -44 -85 -78c9 9 18 14 25 18c17 24 37 45 60 60zM450 147l1 -4c13 28 20 57 20 87
c0 6 -1 13 -1 20c-7 23 -16 40 -28 52l-63 -23c-5 -39 -10 -67 -18 -85c23 -36 38 -60 44 -73l6 2c4 2 9 6 17 10s15 9 22 14zM217 270l-100 14c0 1 -1 -2 -6 -6c-3 -6 -7 -12 -14 -22c-5 -10 -11 -20 -15 -30c11 -44 25 -80 43 -109c30 -10 52 -16 66 -16
c14 17 34 45 62 86c-16 30 -28 58 -36 83zM47 230c0 -29 6 -58 18 -84c11 -26 28 -50 50 -70c-4 10 -4 21 -4 34c-17 30 -32 66 -43 110c-9 6 -16 13 -20 21v-3c-1 -1 -1 -3 -1 -4v-4zM236 52l5 -2c2 0 4 -1 7 -1c4 -2 9 -2 18 -3c8 -1 16 -1 25 -1c9 1 19 2 30 5
c12 2 22 6 32 11c6 6 12 11 15 14s8 9 14 16s9 13 11 19c-9 22 -24 47 -45 74v2l-8 -2c-5 -1 -14 -2 -28 -3s-30 -2 -47 -3c-26 -38 -46 -66 -60 -85c9 -17 20 -30 31 -41zM258 19c36 0 69 8 101 25c-2 0 -3 0 -4 1c-23 -10 -47 -14 -74 -14c-15 0 -28 1 -41 3
c-8 -5 -20 -8 -34 -8c17 -5 35 -7 52 -7z" />
    <glyph glyph-name="S" unicode="S" 
d="M274 410v26c15 -2 27 -8 36 -17c9 -10 13 -19 13 -32v-2h-29v-126l-8 -12v-5v-7l7 -5l-7 -8h-1c-1 -2 -1 -5 -1 -9v-9l9 -5l-7 -9h-3c-1 -7 -1 -13 -2 -17l9 -6l-6 -9h-3c-1 -6 -1 -12 -2 -17h2l9 -5l-6 -9l-5 -1c-1 -6 -1 -12 -2 -17h2l7 -5l-5 -9l-5 -1
c-1 -6 -1 -12 -2 -17h3l7 -6l-5 -7l-6 -2c-1 -6 -1 -12 -1 -17l7 -5l-4 -8l-6 -2c-1 -7 -5 -13 -10 -19h-1c-1 0 -1 2 -3 4s-3 6 -5 10l-5 -2l-6 7l5 8l3 2c0 5 -1 10 -2 16l-3 -1l-6 7l5 8h3c0 6 0 12 -1 18l-4 -1l-7 6l5 8l5 1v18l-5 -1l-9 7l9 8h4v12l-1 5h-3l-9 6l8 9h4
l-2 18l-3 -1l-9 6l8 9h3l-1 17h-1l-10 6l8 8h2l-1 13l-10 12v131h-29v2c0 13 5 22 14 32c9 9 21 15 36 17v-26h29z" />
    <glyph glyph-name="V" unicode="V" horiz-adv-x="409" 
d="M52 296c0 45 16 83 47 114s69 46 113 46s82 -15 113 -46s47 -69 47 -114c0 -27 -6 -52 -19 -75c-13 -24 -31 -43 -54 -58c-3 -2 -7 -9 -12 -20c-6 -14 -12 -24 -17 -31c-9 -10 -29 -15 -58 -15s-49 5 -58 15c-5 7 -11 17 -17 31c-5 11 -8 17 -11 19c-23 15 -41 34 -54 58
c-13 23 -20 49 -20 76zM285 184c19 12 35 28 46 48s16 41 16 64c0 37 -13 69 -39 96c-27 26 -59 39 -96 39s-69 -13 -95 -39c-27 -27 -40 -59 -40 -96c0 -23 6 -44 17 -64c11 -21 26 -37 46 -49c7 -5 14 -15 20 -31c5 -11 10 -19 13 -23s10 -6 19 -7c-4 37 -9 67 -15 90
c-15 -2 -26 2 -33 13c-3 5 -4 11 -2 18c1 7 6 13 14 18c5 3 10 4 16 1s12 -11 17 -25l12 9c-12 15 -16 28 -12 38c3 10 11 15 25 15c13 0 21 -5 24 -16s0 -23 -11 -37c3 -3 6 -6 10 -9c3 13 8 21 13 24c4 2 8 2 12 0c14 -6 21 -14 21 -25c0 -9 -5 -16 -14 -21
c-5 -3 -12 -5 -19 -4c-2 -11 -5 -30 -9 -58c-1 -1 -1 -6 -2 -13c-1 -8 -2 -14 -3 -17c7 1 12 3 15 6c4 5 8 13 13 24c7 16 14 26 21 31zM206 278c-1 -3 2 -9 8 -18c5 8 7 14 6 18c0 1 -2 2 -6 2c-5 0 -7 -1 -8 -2zM172 230c-3 7 -5 12 -8 15c-4 -4 -5 -7 -4 -10
c2 -3 6 -5 12 -5zM254 230c3 0 5 0 7 1s3 3 3 4c0 2 -2 4 -6 7c-1 -2 -3 -6 -4 -12zM211 122h1h5c1 7 3 18 5 33c4 28 7 49 10 63c-3 1 -5 2 -6 3c-4 3 -8 7 -12 11c-5 -5 -12 -9 -19 -13c7 -25 12 -58 16 -97zM263 76v5c0 4 -2 6 -7 6h-88c-5 0 -7 -2 -7 -6v-5
c0 -4 2 -6 7 -6h88c5 0 7 2 7 6zM263 50v4c0 5 -2 7 -7 7h-88c-5 0 -7 -2 -7 -7v-4c0 -5 2 -7 7 -7h88c5 0 7 2 7 7zM263 23v5c0 4 -2 6 -7 6h-88c-5 0 -7 -2 -7 -6v-5c0 -4 2 -6 7 -6h88c5 0 7 2 7 6zM245 8h-66c0 -7 4 -12 11 -16s14 -6 22 -6s16 2 23 6s10 9 10 16z" />
  </font>
</defs>
</svg>
